<mxfile host="Electron" agent="Mozilla/5.0 (Windows NT 10.0; Win64; x64) AppleWebKit/537.36 (KHTML, like Gecko) draw.io/25.0.2 Chrome/128.0.6613.186 Electron/32.2.5 Safari/537.36" version="25.0.2">
  <diagram name="Page-1" id="Q351kB0EhSWYHD4M-1Rb">
    <mxGraphModel dx="1572" dy="758" grid="1" gridSize="10" guides="1" tooltips="1" connect="1" arrows="1" fold="1" page="1" pageScale="1" pageWidth="827" pageHeight="1169" math="0" shadow="0">
      <root>
        <mxCell id="0" />
        <mxCell id="1" parent="0" />
        <mxCell id="v5_AD-AnuTsD6OLvqKxF-1" value="Speech Felina" style="shape=hexagon;perimeter=hexagonPerimeter2;whiteSpace=wrap;fixedSize=1;size=16;fillColor=#ffcccc;strokeColor=#36393d;fontFamily=ADLaM Display;fontSize=20;strokeWidth=2;align=center;spacingLeft=0;spacingBottom=5;fillStyle=hachure;fontStyle=1;rounded=1;arcSize=14;fontSource=https%3A%2F%2Ffonts.googleapis.com%2Fcss%3Ffamily%3DADLaM%2BDisplay;" vertex="1" parent="1">
          <mxGeometry x="327.32" y="27.14" width="172.68" height="42.86" as="geometry" />
        </mxCell>
        <mxCell id="v5_AD-AnuTsD6OLvqKxF-2" value="" style="triangle;whiteSpace=wrap;html=1;dashed=0;direction=south;fillColor=#e51400;fontColor=#ffffff;strokeColor=#000000;strokeWidth=2;fontFamily=Kufam;fontSource=https%3A%2F%2Ffonts.googleapis.com%2Fcss%3Ffamily%3DKufam;verticalAlign=top;spacingTop=5;fontStyle=1;fontSize=16;" vertex="1" parent="1">
          <mxGeometry x="720" y="15" width="87" height="68.13" as="geometry" />
        </mxCell>
        <mxCell id="v5_AD-AnuTsD6OLvqKxF-3" value="" style="group;fontFamily=Oxanium;fontSource=https%3A%2F%2Ffonts.googleapis.com%2Fcss%3Ffamily%3DOxanium;" vertex="1" connectable="0" parent="1">
          <mxGeometry x="20" y="110" width="350" height="80" as="geometry" />
        </mxCell>
        <mxCell id="v5_AD-AnuTsD6OLvqKxF-4" value="asdfasdfas fas" style="rounded=1;whiteSpace=wrap;html=1;hachureGap=4;fontFamily=Oxanium;strokeWidth=2;fillColor=#cdeb8b;strokeColor=#000000;fontSize=16;fontStyle=1;labelBorderColor=none;textShadow=0;labelBackgroundColor=none;align=left;spacing=7;verticalAlign=middle;fontSource=https%3A%2F%2Ffonts.googleapis.com%2Fcss%3Ffamily%3DOxanium;" vertex="1" parent="v5_AD-AnuTsD6OLvqKxF-3">
          <mxGeometry y="40" width="350" height="40" as="geometry" />
        </mxCell>
        <mxCell id="v5_AD-AnuTsD6OLvqKxF-5" value="1" style="rounded=1;whiteSpace=wrap;html=1;hachureGap=4;fontFamily=Oxanium;strokeWidth=2;fillColor=#008a00;strokeColor=#000000;fontSize=22;fontStyle=1;labelBorderColor=none;textShadow=0;labelBackgroundColor=none;align=center;spacing=5;verticalAlign=middle;spacingTop=0;spacingRight=2;fontColor=#ffffff;container=0;fontSource=https%3A%2F%2Ffonts.googleapis.com%2Fcss%3Ffamily%3DOxanium;" vertex="1" parent="v5_AD-AnuTsD6OLvqKxF-3">
          <mxGeometry x="20" width="40" height="40" as="geometry" />
        </mxCell>
        <mxCell id="v5_AD-AnuTsD6OLvqKxF-6" value="dfgsdfg" style="rounded=1;whiteSpace=wrap;html=1;hachureGap=4;fontFamily=Oxanium;strokeWidth=2;fillColor=#008a00;strokeColor=#000000;fontSize=22;fontStyle=1;labelBorderColor=none;textShadow=0;labelBackgroundColor=none;align=center;spacing=5;verticalAlign=middle;spacingTop=0;spacingRight=2;fontColor=#ffffff;container=0;fontSource=https%3A%2F%2Ffonts.googleapis.com%2Fcss%3Ffamily%3DOxanium;" vertex="1" parent="v5_AD-AnuTsD6OLvqKxF-3">
          <mxGeometry x="60" width="250" height="40" as="geometry" />
        </mxCell>
      </root>
    </mxGraphModel>
  </diagram>
</mxfile>
